# xmcd
#
# Track frame offsets: 
#        150
#        12975
#        25730
#        41272
#        52245
#        64325
#        76838
#        91028
#        102080
#        113525
#        129986
#        140450
#        150882
#        164835
#        178173
#        189354
#        200879
#        215123
#        228344
#        243023
#        254105
#        267690
#        281372
#        294150
#        308434
#
# Disc length: 4287 seconds
#
# Revision: 0
# Processed by: cddbd v1.5.2PL0 Copyright (c) Steve Scherf et al.
# Submitted via: ExactAudioCopyFreeDBPlugin 1.0
#
DISCID=5b10bd19
DTITLE=B.B. King - Everyday I HaveThe Blues: The Best of BB King CD 1,
DTITLE=2013
DYEAR=1900
DGENRE=Blues
TTITLE0=Everyday I Have The Blues (1966)
TTITLE1=Mistreated Woman (1950)
TTITLE2=Walkin' And Cryin'
TTITLE3=B.B. Blues
TTITLE4=Miss Martha King
TTITLE5=Got The Blues
TTITLE6=Whole Lotta Love
TTITLE7=When Your Baby Packs Up And Goes
TTITLE8=Take A Swing With Me
TTITLE9=The Other Night Blues
TTITLE10=That Ain't The Way To Do It
TTITLE11=Don't You Want A Man Like Me
TTITLE12=You Know I Love You
TTITLE13=Questionnaire Blues
TTITLE14=She's Dynamite
TTITLE15=Hard Workin' Woman
TTITLE16=She Don't Move Me No More
TTITLE17=Someday, Somewhere
TTITLE18=Why Did You Leave Me
TTITLE19=Love You Baby
TTITLE20=Sneaking Around
TTITLE21=You Upset Me Baby
TTITLE22=Highway Bound
TTITLE23=B.B. Boogie
TTITLE24=Blues For Me
EXTD=
EXTT0=
EXTT1=
EXTT2=
EXTT3=
EXTT4=
EXTT5=
EXTT6=
EXTT7=
EXTT8=
EXTT9=
EXTT10=
EXTT11=
EXTT12=
EXTT13=
EXTT14=
EXTT15=
EXTT16=
EXTT17=
EXTT18=
EXTT19=
EXTT20=
EXTT21=
EXTT22=
EXTT23=
EXTT24=
PLAYORDER=
